<svg width="252" height="67" viewBox="0 0 252 67" fill="none" xmlns="http://www.w3.org/2000/svg">
<g clip-path="url(#clip0_1_13790)">
<path d="M32.4837 25.2547C31.4047 25.4499 28.8527 25.5751 26.4664 25.4793C13.4744 25.0338 5.80001 19.5026 5.49804 14.0266C5.08928 6.61 18.4716 0.953613 35.021 0.953613C46.5694 0.953613 55.6358 3.39882 61.6789 7.83628C62.3638 8.34079 61.9035 9.33508 61.0087 9.05152C53.3195 6.60631 48.0756 5.25114 37.1274 6.10181C23.7045 7.14397 12.5833 16.4203 32.3622 21.2002C35.0431 21.8484 34.7448 24.8386 32.4837 25.2547ZM39.0939 14.7042C48.2303 17.2599 53.4668 20.7731 53.4595 24.5145C53.4337 35.9562 20.9389 39.7676 0.979566 33.7172C0.150994 33.4668 -0.408752 34.5458 0.379312 35.065C23.7634 50.4359 74.4094 43.4501 75.2454 26.4957C75.6173 18.976 60.5115 10.4288 42.5923 10.4288C41.1082 10.4288 39.823 10.5209 38.8066 10.7234C36.8733 11.1395 36.2104 13.8941 39.0975 14.7042H39.0939Z" fill="#FFB71B"/>
<path d="M93.7169 46.9412H95.5103V55.2601H108.153V46.9412H109.946V66.6317H108.153V56.8951H95.5103V66.6317H93.7169V46.9412ZM114.741 59.9921C114.858 63.2549 116.832 65.5012 119.83 65.5012C122.297 65.5012 123.523 64.3117 124.264 62.8756H125.95C125.287 64.7352 123.523 67 119.686 67C115.175 67 113.039 63.4058 113.039 59.7454C113.039 55.5142 115.624 52.3398 119.686 52.3398C124.606 52.3398 126.201 56.1954 126.201 59.274C126.201 59.5244 126.201 59.7491 126.19 59.9958H114.741V59.9921ZM124.418 58.5928C124.319 56.4016 123.152 53.8202 119.653 53.8202C116.641 53.8202 115.101 55.8309 114.807 58.5928H124.418ZM140.415 63.5789C140.415 64.7426 140.507 66.2598 140.57 66.6281H138.961C138.85 66.1199 138.788 65.133 138.765 64.4222C138.125 65.8032 136.681 67 133.658 67C129.913 67 128.517 64.691 128.517 62.6472C128.517 59.2777 131.478 58.1619 135.477 58.1619H138.762V57.1087C138.762 55.5105 138.132 53.7907 134.829 53.7907C131.89 53.7907 131.264 55.2011 130.951 56.5858H129.279C129.463 54.785 130.623 52.3361 134.858 52.3398C138.983 52.3398 140.419 54.3173 140.419 56.8656V63.5789H140.415ZM138.769 59.5208C138.272 59.5208 137.241 59.5208 135.506 59.5208C132.052 59.5208 130.233 60.2978 130.233 62.5625C130.233 64.2123 131.415 65.5196 133.824 65.5196C138 65.5196 138.769 62.8719 138.769 60.2131V59.5171V59.5208ZM144.628 66.6281V45.818H146.304V66.6281H144.628ZM148.959 52.7081H151.743V48.1601H153.422V52.7081H157.068V54.1811H153.422V62.8056C153.422 64.5106 153.857 65.3244 155.363 65.3244C155.775 65.3244 156.383 65.2987 156.806 65.1808V66.547C156.261 66.7606 155.643 66.7827 154.983 66.7827C152.627 66.7827 151.746 65.6816 151.746 63.1002V54.1848H148.962V52.7117L148.959 52.7081ZM161.546 45.818V55.389C162.12 54.1553 163.453 52.3361 166.664 52.3361C169.375 52.3361 171.695 53.9822 171.695 58.0551V66.6281H170.016V58.3829C170.016 55.7388 168.929 53.8938 166.248 53.8938C163.1 53.8938 161.542 56.2949 161.542 59.4324V66.6244H159.866V45.8143H161.542L161.546 45.818ZM186.012 46.9375H194.254C198.835 46.9375 200.894 49.3643 200.894 52.5166C200.894 56.2433 198.356 58.2908 194.309 58.2908H187.813V66.6244H186.012V46.9338V46.9375ZM187.813 56.6484H194.066C197.115 56.6484 199.012 55.5436 199.012 52.5571C199.012 50.0014 197.274 48.5799 194.103 48.5799H187.813V56.6447V56.6484ZM204.094 66.6281V45.818H205.769V66.6281H204.094ZM220.938 63.5789C220.938 64.7426 221.03 66.2598 221.092 66.6281H219.483C219.373 66.1199 219.31 65.133 219.288 64.4222C218.647 65.8032 217.204 67 214.18 67C210.435 67 209.039 64.691 209.039 62.6472C209.039 59.2777 212 58.1619 215.999 58.1619H219.284V57.1087C219.284 55.5105 218.655 53.7907 215.351 53.7907C212.413 53.7907 211.787 55.2011 211.474 56.5858H209.802C209.986 54.785 211.146 52.3361 215.381 52.3398C219.505 52.3398 220.941 54.3173 220.941 56.8656V63.5789H220.938ZM219.292 59.5208C218.794 59.5208 217.763 59.5208 216.029 59.5208C212.575 59.5208 210.755 60.2978 210.755 62.5625C210.755 64.2123 211.938 65.5196 214.346 65.5196C218.522 65.5196 219.292 62.8719 219.292 60.2131V59.5171V59.5208ZM225.154 56.2175C225.154 55.0317 225.154 53.7834 225.125 52.7081H226.752C226.808 53.2015 226.837 54.6561 226.83 55.5399C227.423 54.0632 228.829 52.3361 231.856 52.3361C234.883 52.3361 236.983 54.1185 236.983 58.0109V66.6281H235.303V58.3276C235.303 55.7682 234.302 53.8938 231.584 53.8938C228.306 53.8938 226.83 56.5011 226.83 59.8853V66.6281H225.151V56.2175H225.154ZM241.667 62.5515C242.201 64.4517 243.718 65.5417 246.321 65.5417C249.168 65.5417 250.262 64.437 250.262 62.9161C250.262 61.4983 249.547 60.5887 245.927 60.051C241.582 59.3955 240.614 57.9704 240.614 56.1881C240.614 54.4057 241.998 52.3361 245.916 52.3361C250.17 52.3361 251.455 54.7003 251.602 56.3611H249.897C249.669 55.3669 248.973 53.7834 245.799 53.7834C243 53.7834 242.326 55.0649 242.326 56.0555C242.326 57.3112 243.048 58.0183 246.274 58.5338C250.947 59.2703 251.993 60.6881 251.993 62.8019C251.993 65.295 250.048 66.9926 246.24 66.9926C242.433 66.9926 240.404 65.2471 239.943 62.5478H241.659L241.667 62.5515ZM112.697 22.3124C113.551 23.314 113.978 24.5992 113.978 26.179C113.978 27.7588 113.525 29.1987 112.616 30.4213C111.71 31.6439 110.447 32.5866 108.826 33.2421C107.21 33.8976 105.321 34.2291 103.166 34.2291C100.22 34.2291 97.6867 33.592 95.5729 32.3141C93.4555 31.04 91.8978 29.2945 90.8961 27.0849L95.7902 25.3505C96.4199 26.6651 97.3627 27.7257 98.611 28.5285C99.8594 29.3313 101.458 29.7327 103.406 29.7327C104.326 29.7327 105.155 29.6075 105.891 29.3571C106.628 29.1066 107.199 28.7458 107.607 28.2707C108.016 27.7993 108.219 27.258 108.219 26.6541C108.219 25.7334 107.692 25.0558 106.639 24.6213C105.586 24.1868 103.929 23.7596 101.668 23.3398C99.7195 22.92 98.0181 22.4081 96.5599 21.8005C95.1016 21.1965 93.96 20.3938 93.1462 19.3921C92.3323 18.3941 91.9235 17.131 91.9235 15.6028C91.9235 14.0745 92.4096 12.723 93.3855 11.5372C94.3577 10.3551 95.6687 9.41978 97.3111 8.73483C98.9535 8.04987 100.762 7.7074 102.735 7.7074C104.603 7.7074 106.274 7.98359 107.747 8.53597C109.22 9.08835 110.491 9.87273 111.555 10.8854C112.619 11.8981 113.47 13.0876 114.1 14.4575L109.287 16.1551C108.628 14.892 107.736 13.9198 106.602 13.2349C105.472 12.5499 104.116 12.2075 102.537 12.2075C101.693 12.2075 100.898 12.34 100.15 12.6015C99.3991 12.863 98.8099 13.2202 98.3754 13.6658C97.9408 14.115 97.7235 14.6269 97.7235 15.2051C97.7235 15.7832 97.9335 16.2178 98.3569 16.586C98.7768 16.9543 99.4543 17.2636 100.39 17.514C101.321 17.7644 102.526 18.048 103.999 18.361C105.947 18.755 107.666 19.2632 109.169 19.8819C110.668 20.5005 111.846 21.3107 112.7 22.3087L112.697 22.3124ZM158.559 17.1421C157.929 15.9858 157.06 15.0651 155.956 14.3802C154.851 13.6952 153.588 13.3527 152.166 13.3527C151.113 13.3527 150.133 13.5516 149.228 13.9456C148.322 14.3397 147.512 14.8663 146.801 15.5254C146.274 16.0115 145.814 16.5345 145.42 17.0942V13.9493H140.132V33.6399H145.578V20.0807C145.755 19.8671 145.95 19.6536 146.171 19.451C146.723 18.9391 147.361 18.523 148.086 18.2063C148.808 17.8896 149.552 17.7313 150.318 17.7313C151.084 17.7313 151.706 17.897 152.269 18.2247C152.836 18.5525 153.275 19.0018 153.591 19.5652C153.908 20.1323 154.066 20.7694 154.066 21.4801V33.6325H159.513V20.9682C159.513 19.5762 159.196 18.2984 158.566 17.1421H158.559ZM177.679 29.3828C177.318 29.4712 176.887 29.5522 176.375 29.6296C175.771 29.7216 175.138 29.7695 174.482 29.7695C173.271 29.7695 172.376 29.5117 171.798 28.9999C171.22 28.488 170.929 27.7846 170.929 26.8898V18.21H177.675V13.9493H170.929V9.13622H165.523V13.9493H162.286V18.21H165.523V28.116C165.523 30.0089 166.186 31.504 167.515 32.594C168.844 33.684 170.796 34.2327 173.374 34.2327C174.188 34.2327 175.013 34.1738 175.841 34.056C176.574 33.9529 177.182 33.8203 177.675 33.6619V29.3865L177.679 29.3828ZM235.793 20.9682V33.6362H230.428V31.04C230.255 31.2646 230.074 31.4893 229.875 31.7028C229.139 32.4909 228.262 33.1096 227.25 33.5588C226.237 34.0044 225.114 34.2291 223.876 34.2291C221.984 34.2291 220.452 33.7209 219.281 32.7082C218.11 31.6955 217.524 30.4139 217.524 28.8599C217.524 27.652 217.852 26.6099 218.511 25.7408C219.166 24.8717 220.083 24.1757 221.254 23.6491C222.425 23.1225 223.773 22.7543 225.298 22.5444L230.428 21.8705V20.6884C230.428 19.7677 230.1 19.0054 229.441 18.4015C228.782 17.7976 227.927 17.4919 226.874 17.4919C225.821 17.4919 224.882 17.7865 224.13 18.3794C223.379 18.9723 222.794 19.7162 222.374 20.6073L218.139 19.3995C218.607 18.1658 219.376 16.9616 220.223 16.0889C221.078 15.2087 222.112 14.5311 223.32 14.0561C224.528 13.5811 225.887 13.3454 227.386 13.3454C229.989 13.3454 232.041 14.0045 233.543 15.3192C235.042 16.6339 235.793 18.5157 235.793 20.9609V20.9682ZM230.428 25.1037L226.756 25.5456C225.729 25.6782 224.867 25.9544 224.171 26.3742C223.475 26.794 223.125 27.4016 223.125 28.1897C223.125 28.7936 223.387 29.2945 223.913 29.6885C224.44 30.0825 225.136 30.2814 226.005 30.2814C226.874 30.2814 227.622 30.0899 228.332 29.7106C229.043 29.3313 229.662 28.8084 230.188 28.1529C230.273 28.0461 230.347 27.9356 230.424 27.8214V25.1037H230.428ZM181.063 19.2632C181.535 18.0811 182.275 16.9358 183.092 16.0962C183.947 15.2161 184.981 14.5385 186.189 14.0635C187.397 13.5884 188.756 13.3527 190.255 13.3527C192.858 13.3527 194.909 14.0119 196.412 15.3266C197.911 16.6412 198.662 18.523 198.662 20.9682V33.6362H193.297V31.04C193.123 31.2646 192.943 31.4893 192.744 31.7028C192.008 32.4909 191.131 33.1096 190.119 33.5588C189.106 34.0044 187.983 34.2291 186.745 34.2291C184.852 34.2291 183.321 33.7209 182.149 32.7082C180.978 31.6955 180.393 30.4139 180.393 28.8599C180.393 27.652 180.721 26.6099 181.38 25.7408C182.035 24.8717 182.952 24.1757 184.123 23.6491C185.294 23.1225 186.642 22.7543 188.167 22.5444L193.297 21.8705V20.6884C193.297 19.7677 192.969 19.0054 192.31 18.4015C191.65 17.7976 190.796 17.4919 189.743 17.4919C188.69 17.4919 187.751 17.7865 186.999 18.3794C186.248 18.9723 185.663 19.7162 185.243 20.6073L181.063 19.2595M193.289 25.1L189.618 25.5419C188.59 25.6745 187.729 25.9507 187.033 26.3705C186.337 26.7903 185.987 27.3979 185.987 28.186C185.987 28.7899 186.248 29.2908 186.775 29.6848C187.301 30.0788 187.997 30.2777 188.866 30.2777C189.736 30.2777 190.483 30.0862 191.194 29.7069C191.905 29.3276 192.523 28.8047 193.05 28.1492C193.135 28.0424 193.208 27.9319 193.285 27.8178V25.1H193.289ZM215.878 13.6915C215.62 13.5921 215.3 13.5111 214.909 13.4485C214.501 13.3822 214.099 13.3491 213.705 13.3491C212.785 13.3491 211.904 13.6657 211.061 14.2955C210.218 14.9289 209.514 15.7427 208.951 16.7407C208.594 17.3704 208.325 18.0111 208.141 18.6703V13.9383H202.893V33.6288H208.377V24.0026C208.483 22.9237 208.734 21.9699 209.128 21.1413C209.522 20.3127 210.1 19.6609 210.862 19.1896C211.625 18.7145 212.571 18.4788 213.705 18.4788C214.022 18.4788 214.398 18.5046 214.828 18.5562C215.263 18.6077 215.609 18.674 215.874 18.755V13.6915H215.878ZM136.018 28.7237C135.33 30.3845 134.17 31.7139 132.531 32.7082C130.859 33.7209 128.974 34.2291 126.867 34.2291C124.761 34.2291 123.026 33.7872 121.421 32.907C119.815 32.0269 118.545 30.8153 117.613 29.276C116.678 27.7367 116.214 26.0096 116.214 24.0873C116.214 22.0362 116.681 20.2023 117.613 18.5819C118.545 16.9653 119.808 15.6875 121.402 14.7558C122.993 13.8241 124.79 13.3564 126.79 13.3564C128.631 13.3564 130.274 13.7394 131.721 14.5017C133.168 15.264 134.313 16.3172 135.153 17.6576C135.996 18.9981 136.416 20.5374 136.416 22.2755V24.9196H121.76C121.859 25.7224 122.073 26.4589 122.408 27.1291C122.883 28.0755 123.531 28.8194 124.359 29.3571C125.188 29.8947 126.142 30.1672 127.221 30.1672C128.193 30.1672 129.095 29.9168 129.924 29.416C130.752 28.9152 131.389 28.1934 131.839 27.247L136.015 28.7273L136.018 28.7237ZM121.947 21.679H131.109C131.062 20.9056 130.896 20.217 130.598 19.6278C130.24 18.9171 129.736 18.3536 129.077 17.9301C128.418 17.5103 127.655 17.3004 126.79 17.3004C125.788 17.3004 124.908 17.584 124.146 18.1474C123.383 18.7145 122.783 19.4878 122.349 20.4748C122.183 20.8541 122.047 21.2555 121.947 21.679Z" fill="black"/>
</g>
<defs>
<clipPath id="clip0_1_13790">
<rect width="252" height="66.0464" fill="white" transform="translate(0 0.953613)"/>
</clipPath>
</defs>
</svg>
