<svg enable-background="new 0 0 159.9461975 50.1900024" height="177.328262" viewBox="0 0 159.9461975 50.1900024" width="563.925901" xmlns="http://www.w3.org/2000/svg"><g fill="#293682"><path d="m8.0360107 47.8880005c1.5910034.5439758 3.2659912.8370056 5.0650024.8370056 7.618988 0 12.9349976-5.526001 12.9349976-16.0320129v-31.3110047l2.8890076-1.3819885v33.2369995c0 10.7160034-5.526001 16.9530029-13.3540039 16.9530029-2.7200012 0-5.2740173-.8370056-7.5350037-2.3020019m-3.3059997-3.1820068c1.7579956.5859985 3.5159912.9629822 5.0650024.9629822 6.4039917 0 10.6739807-4.0179749 10.6739807-13.1019897v-28.7989808l2.8460083-1.3400269v30.3900146c0 9.5019836-4.8139954 14.3580017-11.5109863 14.3580017-2.4700012.0000001-4.9819946-.9209899-7.0740051-2.4700011m-2.0100098-2.8460083c1.5490112.4599915 2.9720154.7529907 4.2279968.7529907 4.9819946 0 8.0370178-2.7209778 8.0370178-9.8789978v-26.5379944l2.8049927-1.3399963v27.4599914c0 8.0370178-3.6839905 11.6790161-8.9580078 11.6790161-2.2189941 0-4.3119812-.7539978-6.1119995-2.1350097m9.6280213-8.3720093v-26.2039795l-12.3480225 5.5669861v21.2650146c0 4.0599976 2.553009 6.7810059 6.3200073 6.7810059 3.7260132 0 6.0280152-2.7630005 6.0280152-7.4090271"/><path d="m44.8237305 7.2390747v9.7700195c0 3.6080017 2.1329956 6.4259949 6.2149963 6.4259949 3.5019836 0 6.1359863-2.5809937 6.1359863-6.5050049v-9.427002c0-1.0269775.6849976-1.8699951 1.8430176-1.9490051l.368988-.0269775v-.9210205h-6.1360168v.9210205l.3950195.0269775c1.1319885.07901 1.8429871.8950195 1.8429871 1.9490051v9.1380005c0 2.9760132-1.5529785 4.7919922-3.9759827 4.7919922-2.4490051 0-3.8980103-1.9219971-3.8980103-4.8190002v-9.375c0-1.0269775.553009-1.6059875 1.7120056-1.6849976l.368988-.0269775v-.9210205h-6.9790039v.9210205l.3950195.0269775c1.1319887.0790101 1.7120058.6320191 1.7120058 1.6849976"/><path d="m53.1078186 28.0791626.394989.026001c.973999.053009 1.7120056.4480286 1.7120056 1.5540161v5.7409973h-6.9000244v-5.7409973c0-1.1059875.7380066-1.473999 1.7120056-1.5540161l.3690186-.026001v-.9219971h-6.9790039v.9219971l.394989.026001c.973999.053009 1.7120056.4480286 1.7120056 1.5540161v13.4309998c0 1.1059875-.7380066 1.5010071-1.7120056 1.553009l-.394989.0269775v.9210205h6.9790039v-.9210205l-.3690186-.0269775c-.973999-.07901-1.7120056-.4470215-1.7120056-1.553009v-6.2680054h6.9000244v6.2680054c0 1.1059875-.7380066 1.5010071-1.7120056 1.553009l-.394989.0269775v.9210205h6.9789734v-.9210205l-.368988-.0269775c-.973999-.07901-1.7120056-.4470215-1.7120056-1.553009v-13.4309998c0-1.1059875.7380066-1.473999 1.7120056-1.5540161l.368988-.026001v-.9219971h-6.9789734"/><path d="m59.3599243 10.004364v.8690186l.5269775.026001c.8160095.053009 1.3170166.447998 1.3170166 1.5539856v8.1110229c0 1.1059875-.5540161 1.5009766-1.4490051 1.5539856l-.394989.026001v.894989h6.2409973v-.894989l-.3680115-.026001c-.8959961-.053009-1.4490051-.447998-1.4490051-1.5539856v-4.3190002c.053009-3.1600037 1.4219971-5.0559998 3.0289917-5.0559998 1.2369995 0 2.0540161.8429871 2.0540161 2.4749756v6.9000244c0 1.1059875-.553009 1.5009766-1.4490051 1.5539856l-.394989.026001v.894989h6.2409973v-.894989l-.3680115-.026001c-.894989-.053009-1.4490051-.447998-1.4490051-1.5539856v-7.1890259c0-2.0539856-1.2639771-3.7659912-3.7659912-3.7659912-1.7640076 0-3.2909851 1.053009-3.8970032 2.9230042v-2.8699952"/><path d="m95.3853149 23.3031616c2.6589966 0 4.1610107-1.8169861 4.7660217-3.8710022l-1.132019-.315979c-.5270081 1.4219971-1.447998 2.5279846-3.2919922 2.5279846-2.1329956 0-3.5820007-2.0269775-3.5820007-5.2409973h8.1910095v-.7630005c0-3.3970032-2.0020142-6.1359863-5.2150269-6.1359863-3.4489746 0-5.7409973 3.2909851-5.7409973 6.8989868s2.2130128 6.8999939 6.0050049 6.8999939m-.289978-12.2980041c1.447998 0 2.3699951 1.3430176 2.4759827 4.1080017h-5.3729858c.263977-2.5539856 1.316986-4.1080017 2.8970031-4.1080017"/><path d="m82.4285278 20.0904541c0 2.0540161 1.2379761 3.2130127 3.2129822 3.2130127 1.8430176 0 3.0549927-1.3429871 3.6080017-3.2659912l-.947998-.2630005c-.368988 1.1059875-.9750061 1.7909851-1.8179932 1.7909851-1.1060181 0-1.473999-.8169861-1.473999-1.7649841v-8.5320129h3.6080017v-1.3699952h-3.6080017v-4.0549927h-1.3170166c-.5010071 3.0549927-2.0539856 4.1609802-3.6869812 4.5029907v.9219971h2.4230042"/><path d="m76.8985291 7.5287476c.894989 0 1.6849976-.76297 1.6849976-1.7639771 0-.947998-.7900085-1.7120056-1.6849976-1.7120056-.9210205 0-1.6850281.7640076-1.6850281 1.7120056 0 1.0010071.7640075 1.7639771 1.6850281 1.7639771"/><path d="m75.687439 12.4533386v8.1110229c0 1.1059875-.553009 1.5010071-1.4490051 1.5539856l-.3950195.026001v.8950195h6.2420044v-.8950195l-.368988-.026001c-.8950195-.0529785-1.447998-.447998-1.447998-1.5539856v-10.902008l-4.5559998.3420105v.868988l.6579895.026001c.8160094.0270081 1.3170165.4479981 1.3170165 1.5539856"/><path d="m107.0502014 23.3031311c1.7380371 0 3.0810547-.894989 3.6610107-2.4219971v2.15802h4.3980103v-.8940125l-.3690186-.0270081c-.8949585-.0529785-1.447998-.447998-1.447998-1.5539856v-16.3009947l-4.4769897.394989v.868988l.5790405.0270081c.815979.026001 1.3169556.446991 1.3169556 1.553009v4.7399902c-.5799561-1.473999-1.9229736-2.3429871-3.6610107-2.3429871-3.4499512 0-5.3979492 3.2909851-5.3979492 6.8989868s1.9479979 6.899994 5.3979491 6.899994m.4480591-12.2980041c1.9489746 0 3.2129517 2.1070251 3.2129517 5.3980103 0 3.2919922-1.2639771 5.3990173-3.2129517 5.3990173-1.8430176 0-3.0550232-2.0800171-3.0550232-5.3990173 0-3.3179933 1.2120056-5.3980103 3.0550232-5.3980103"/><path d="m146.2518616 32.1081238c-1.5270386 0-2.8440552 1.0010071-3.4230347 2.7910156v-2.6849976l-4.4249878.3420105v.868988l.5269775.026001c.8170166.053009 1.3170166.447998 1.3170166 1.5539856v8.1110229c0 1.1059875-.5540161 1.5009766-1.4489746 1.5539856l-.3950195.026001v.894989h6.2420044v-.894989l-.3690186-.026001c-.8950195-.053009-1.447998-.447998-1.447998-1.5539856v-4.4240112c.052002-3.2919922 1.473999-5.3460083 3.2119751-5.3460083.3950195 0 .6590576.105011.8690186.3420105-.4469604.2369995-.7369995.6849976-.7369995 1.2380066 0 .7639771.632019 1.3959961 1.3959961 1.3959961.7640381 0 1.3959961-.632019 1.3959961-1.5280151-.0000001-1.6589966-1.2379761-2.6860046-2.7129517-2.6860046"/><path d="m154.7312317 32.0558472c-3.4489746 0-5.7410278 3.2909851-5.7410278 6.8989868s2.2120361 6.8999939 6.0050049 6.8999939c2.6589966 0 4.1600342-1.8169861 4.7659912-3.8710022l-1.131958-.315979c-.5270386 1.4219971-1.4490356 2.5279846-3.2919922 2.5279846-2.1329956 0-3.5820313-2.0279846-3.5820313-5.2409973h8.190979v-.7630005c0-3.3970032-2.0019531-6.1359863-5.2149658-6.1359863m-2.9229736 5.6089782c.2639771-2.5539856 1.3169556-4.1079712 2.8969727-4.1079712 1.447998 0 2.3699951 1.3429871 2.4749756 4.1079712"/><path d="m136.1660461 43.4060364v-6.8739929c0-2.8170166-1.7650146-4.4770203-4.7410278-4.4770203-2.5540161 0-4.8189697 1.6860046-4.8189697 3.6080017 0 .8170166.605957 1.4490051 1.3959961 1.4490051.7639771 0 1.3959961-.6319885 1.3959961-1.3959961 0-.5270081-.2900391-1.0010071-.7109985-1.2380066.473999-.6579895 1.315979-1.0529785 2.3439941-1.0529785 1.605957 0 2.5799561 1.2109985 2.5799561 3.2389832v.606018l-3.8969727 1.6059875c-2.6079712 1.0799866-3.5029907 2.0280151-3.5029907 3.7399902 0 1.9750061 1.4219971 3.2390137 3.6610107 3.2390137 1.6849976 0 3.0809937-1.0270081 3.7130127-2.5809937v.394989c0 1.3429871.947998 2.1600037 2.5279541 2.1600037.632019 0 1.132019-.0800171 1.6589966-.2380066v-.894989c-1.1059571.1319886-1.6059571-.2890013-1.6059571-1.2900084m-2.5809936-2.9760132c-.132019 2.3170166-1.2900391 3.8710022-2.8970337 3.8710022-1.1589966 0-1.8959961-.789978-1.8959961-2.0019836 0-1.07901.5789795-1.9219971 1.6859741-2.3959961l3.1329956-1.3950195"/><path d="m99.1925354 42.3258362c-.3690186 1.1060181-.9750061 1.7910156-1.8170166 1.7910156-1.1059875 0-1.4750061-.8160095-1.4750061-1.7640076v-8.5329895h3.6080017v-1.3690186h-3.6080017v-4.0559998h-1.3169861c-.5 3.0550232-2.0540161 4.1610107-3.6870117 4.5040283v.92099h2.4230042v8.821991c0 2.0549927 1.2380066 3.2130127 3.2130127 3.2130127 1.8439941 0 3.0549927-1.3430176 3.6080017-3.2650146"/><path d="m82.4969177 43.4060364v-6.8739929c0-2.8170166-1.7650146-4.4770203-4.7409973-4.4770203-2.5540161 0-4.8190002 1.6860046-4.8190002 3.6080017 0 .8170166.6059875 1.4490051 1.3959961 1.4490051.7640076 0 1.3959961-.6319885 1.3959961-1.3959961 0-.5270081-.2900085-1.0010071-.7109985-1.2380066.473999-.6579895 1.3160095-1.0529785 2.3439941-1.0529785 1.6059875 0 2.5799866 1.2109985 2.5799866 3.2389832v.606018l-3.8969727 1.6059875c-2.6080017 1.0799866-3.5030212 2.0280151-3.5030212 3.7399902 0 1.9750061 1.4219971 3.2390137 3.6610107 3.2390137 1.6849976 0 3.0809937-1.0270081 3.7130127-2.5809937v.394989c0 1.3429871.947998 2.1600037 2.5279846 2.1600037.6319885 0 1.1319885-.0800171 1.6589966-.2380066v-.894989c-1.1059876.1319886-1.6059876-.2890013-1.6059876-1.2900084m-2.5809936-2.9760132c-.132019 2.3170166-1.2900085 3.8710022-2.8970032 3.8710022-1.15802 0-1.8960266-.789978-1.8960266-2.0019836 0-1.07901.57901-1.9219971 1.6860046-2.3959961l3.1329956-1.3950195"/><path d="m120.9709167 44.1958313c-2.1330566 0-3.5820313-2.0279846-3.5820313-5.2409973 0-3.2649841 1.4219971-5.3450012 3.5560303-5.3450012.947998 0 1.6849976.3150024 2.131958.8950195-.3939819.2630005-.657959.7109985-.657959 1.2109985 0 .7640076.631958 1.3959961 1.3959961 1.3959961.789978 0 1.3959961-.6319885 1.3959961-1.5280151 0-1.5799866-1.5800171-3.5279846-4.3980103-3.5279846-3.9240112 0-6.1890259 3.2919922-6.1890259 6.8989868 0 3.6080017 2.2120361 6.9000244 6.0050049 6.9000244 2.6069946 0 4.0809937-1.7380066 4.6610107-3.7130127l-1.1329956-.3420105c-.4999998 1.3430176-1.3959959 2.3959961-3.185974 2.3959961"/><path d="m89.1593323 43.1160278v-16.3009948l-4.4770203.3950195v.868988l.57901.026001c.8169861.0270081 1.3169861.447998 1.3169861 1.5540161v13.4569702c0 1.1060181-.5529785 1.5010071-1.447998 1.5540161l-.394989.026001v.894989h6.2409973v-.894989l-.368988-.026001c-.8950196-.053009-1.4479981-.447998-1.4479981-1.5540161"/><path d="m112.2280579 43.1160278v-7.1889954c0-2.0539856-1.2640381-3.7659912-3.7660522-3.7659912-1.7639771 0-3.2919922 1.053009-3.8979492 2.9230042v-8.2690124l-4.4760132.3950195v.868988l.57901.026001c.815979.0270081 1.3169861.447998 1.3169861 1.5540161v13.4569702c0 1.1060181-.553009 1.5010071-1.4490051 1.5540161l-.394989.026001v.894989h6.2420044v-.894989l-.3690186-.026001c-.8959961-.053009-1.4489746-.447998-1.4489746-1.5540161v-4.3189697c.0529785-3.1600037 1.4229736-5.0560303 3.0289917-5.0560303 1.2369995 0 2.0539551.8430176 2.0539551 2.4760132v6.8989868c0 1.1060181-.5529785 1.5010071-1.447998 1.5540161l-.3949585.026001v.894989h6.2409668v-.894989l-.3689575-.026001c-.8950197-.053009-1.4479982-.447998-1.4479982-1.5540161"/><path d="m66.3275452 32.0558472c-3.4499817 0-5.7409973 3.2909851-5.7409973 6.8989868s2.2120056 6.8999939 6.0039978 6.8999939c2.6600037 0 4.1610107-1.8169861 4.7669983-3.8710022l-1.1329956-.315979c-.526001 1.4219971-1.447998 2.5279846-3.2909851 2.5279846-2.1329956 0-3.5820007-2.0279846-3.5820007-5.2409973h8.1900024v-.7630005c-.0000001-3.3970032-2.0010071-6.1359863-5.2140198-6.1359863m-2.9229737 5.6089782c.2639771-2.5539856 1.3169861-4.1079712 2.8969727-4.1079712 1.447998 0 2.3700256 1.3429871 2.4750061 4.1079712"/></g></svg>